<svg id="Слой_1" data-name="Слой 1" xmlns="http://www.w3.org/2000/svg" viewBox="0 0 717.53 1263.53"><defs><style>.cls-1{fill:#2b3990;}.cls-2{fill:#be1e2d;}.cls-3{fill:#2e3192;}.cls-4{fill:#21409a;}</style></defs><title>logo</title><path d="M-805.45-842.58c4,1.23,7.87,2.73,11.91,3.65,24.1,5.48,42.92,18.89,57.28,38.62,17,23.39,21.92,49.84,16.71,77.83-3.93,21.14-14.37,39.26-30.53,53.8-1.44,1.29-2.77,2.74-4.3,3.91-3.7,2.82-3.57,3.86.55,6.12,6.62,3.62,13.31,7.14,19.67,11.17,16.93,10.71,30.57,24.86,41.59,41.45a244,244,0,0,1,12.79,22.63c2.35,4.52,1.54,5.38-3.83,5.38-24.12,0-48.24.1-72.37.07q-97.39-.13-194.79-.34c-5.44,0-5.84-.47-3.71-5.38a145.23,145.23,0,0,1,52.53-63.15c6.63-4.51,14-8,20.93-12a30,30,0,0,0,3.93-3.33c-14.4-11-25.12-24.19-31.9-40.25a99,99,0,0,1-7.24-53.07c4.05-29.45,18.48-52.21,42.49-69.23,11.77-8.33,24.91-13.35,39-16a53,53,0,0,0,5.94-1.87ZM-817-671.74l.66-1.68c-1.06-.5-2.09-1.08-3.19-1.48-3-1.07-6.25-1.72-9.09-3.15-31.62-15.9-47.16-50-37.21-84.41,6.55-22.63,21.59-38.56,44.19-46.7a47.46,47.46,0,0,0,5.88-3c-25.56-1.74-53.45,11.71-66.82,41.74-13.18,29.62-4.33,60.81,17.93,81C-851.11-677.2-835.1-671.15-817-671.74Z" transform="translate(1069.06 842.58)"/><path d="M-351.53-409.07c-3.2.23-6.41.39-9.61.7-3.72.36-4.82-1.52-4.76-4.92.08-5.18-.06-10.36-.13-15.54-.33-23.15-4.45-45.67-13.56-66.9-9.29-21.67-23-40.51-42.65-54-11.1-7.61-22.84-14.72-35.19-19.93a152.79,152.79,0,0,0-36.62-10c-15.11-2.25-30.55-2.94-45.86-3.13-33.36-.4-66.73-.09-100.09,0-3,0-4.64-1.1-5.8-3.93-7-17-15.39-33.31-26.65-48-3-3.93-6.21-7.75-9.81-12.22a23.27,23.27,0,0,1,4.08-.85c58.78,0,117.57.43,176.35-.15a558.6,558.6,0,0,0,64.34-4.63c18.95-2.39,37.64-6.93,56.4-10.78,8.18-1.69,16.2-4.09,24.33-6a28.35,28.35,0,0,1,5.23-.27Z" transform="translate(1069.06 842.58)"/><path d="M-678.32,157.82c-16.07,38.35-42.92,64.86-80.21,82.33,28.56,22.6,42.35,51.16,40.68,86.36-1.33,28-12.95,51.47-34.1,69.91a99.87,99.87,0,0,1-135.33-3.89c-21.74-21.26-31.79-47.73-29.79-78.08s15.69-54.84,40.44-74.06c-3.7-2.08-6.66-3.85-9.72-5.45-31.2-16.34-54-40.51-68.29-72.75-1.86-4.22-1.4-4.91,3.25-4.91l239.55.08c9.4,0,18.79-.05,28.18,0C-682.25,157.33-680.84,157.58-678.32,157.82ZM-817.81,390.63c19.56,2.69,47.92-9.42,62.34-35.29,15.77-28.29,10.14-63.29-13.65-86.2-14.77-14.22-42.45-22.18-49.34-17.22,32.56,11.5,51.79,33.93,52,68.71C-766.25,355.59-785.59,378.19-817.81,390.63Z" transform="translate(1069.06 842.58)"/><path d="M-599.88-163.75h-37.41c-7.86,0-7.8,0-7.79-7.71,0-16.68.14-33.36-.1-50-.07-4.68,1.43-6.26,6.11-6.21q31.34.28,62.67.08c16.85-.13,33.57-1.78,49.77-6.76,27.51-8.44,49.83-24.32,67.17-47.29a126.86,126.86,0,0,0,19.67-38.05,140.93,140.93,0,0,0,6.39-46.83c-.15-6.3.39-6.7,7-6.68,6,0,6.52.56,6.52,6.7,0,15.87.1,31.74,0,47.61,0,3.53-.83,7.06-.82,10.59q.35,142,.79,284.09c0,5.24-.68,5.65-7.47,5.9-4.31.16-6.28-1.41-6.12-5.9.56-15.95-1.15-31.76-6.05-46.87a130.77,130.77,0,0,0-41.7-61.7A131,131,0,0,0-511-151.41c-19-8.55-39-12.08-59.75-12.37-9.71-.13-19.43,0-29.15,0Z" transform="translate(1069.06 842.58)"/><path class="cls-1" d="M-921.63-71.12c-.18-2.46-.4-4.13-.41-5.8,0-27.37-.16-54.75.11-82.11a14.08,14.08,0,0,1,3.83-8.83q54.45-54.91,109.24-109.48,45.15-45.06,90.4-90A29.33,29.33,0,0,0-715.3-372l1.8,1a31.71,31.71,0,0,1,.58,4.41c0,27.7.07,55.39-.21,83.08a13.33,13.33,0,0,1-3.41,8.44q-55.73,56.16-111.78,112-44.94,45-89.85,90C-918.87-72.44-919.94-72.09-921.63-71.12Z" transform="translate(1069.06 842.58)"/><path class="cls-2" d="M-921-259.06a14.36,14.36,0,0,1-.82-3.12c.15-19.42.62-38.85.45-58.26-.15-18.51,6.52-34.14,19.07-47.27q29-30.32,58.48-60.07c32.54-32.81,65.35-65.36,98-98.12,9.88-9.93,19.44-20.19,29.21-30.25.7-.72,2.33-1.63,2.71-1.35a4.41,4.41,0,0,1,1.71,3c-.34,19.62-1,39.24-1.18,58.86-.13,19.2-7.42,35.2-20.66,48.66q-57.48,58.44-115.12,116.73c-22.86,23.11-45.89,46-68.87,69A25.28,25.28,0,0,1-921-259.06Z" transform="translate(1069.06 842.58)"/><path class="cls-2" d="M-921,116.92a23.62,23.62,0,0,1-.84-3.87c.11-19.27.43-38.54.37-57.81-.06-18,6-33.64,18.31-46.65Q-878-17.94-852.35-44.06c19.25-19.59,38.7-39,58.12-58.39,17.14-17.14,34.38-34.19,51.54-51.31,8.69-8.67,17.3-17.42,26-26.1a24.06,24.06,0,0,1,3-2.13,18.53,18.53,0,0,1,.67,3.31c-.08,19.43-.33,38.87-.28,58.3.05,18.82-7.68,34.09-19.68,48.16C-751.11-51-771.8-32.44-791.29-12.69c-39.54,40.05-79.55,79.63-119.37,119.4C-913.88,109.93-917.15,113.1-921,116.92Z" transform="translate(1069.06 842.58)"/><path d="M-677.77-260.82q0,93.31,0,186.63c0,24.77.5,49.55.49,74.33,0,44.22-.25,88.43-.38,132.64,0,3.28-1.08,5.37-4.79,5.07-.32,0-.65,0-1,0-7.94.06-7.94.06-7.94-7.72,0-37.75.07-75.5,0-113.24-.06-24.77-.53-49.54-.51-74.31q.2-232.77.5-465.55c0-10-.42-20.07-.73-30.1-.19-6.07.07-6.44,5.94-6.46,1.29,0,2.6.08,3.88,0,3.87-.32,5.18,1.63,5.1,5.25-.26,11.32-.56,22.65-.57,34Q-677.81-390.57-677.77-260.82Z" transform="translate(1069.06 842.58)"/><path d="M-943.46-210.6V132c0,6.06,0,5.85-7.76,6.09-4.77.15-6.08-1.76-6.08-6.33q.15-186.57.09-373.15,0-156.21,0-312.42c0-5.17.71-5.39,7.66-5.69,4.54-.2,6.19,1.07,6.19,5.92Q-943.55-382.12-943.46-210.6Z" transform="translate(1069.06 842.58)"/><path class="cls-3" d="M-847.21,137.34c3.65-4,6.38-7.2,9.37-10.17,15.55-15.46,31.23-30.81,46.75-46.3,13.7-13.68,27.27-27.49,40.86-41.28C-739.14,28.34-728.14,17-717,5.79c.87-.88,2.39-1.12,3.6-1.66.4,1.3,1.15,2.61,1.12,3.9-.11,6.14-.63,12.27-.64,18.4q-.09,53.18,0,106.35c0,4.13-1.58,5.25-5.47,5.24-41.28-.08-82.55,0-123.83,0A49.56,49.56,0,0,1-847.21,137.34Z" transform="translate(1069.06 842.58)"/><path class="cls-4" d="M-921.69-448.08a25.06,25.06,0,0,1-.3-3.14c0-34,.06-68,0-102,0-4.39,1-6.28,6-6.25,33.68.21,67.36.09,101,.1,1.52,0,3,.32,4.48.47Z" transform="translate(1069.06 842.58)"/><path d="M-936.07,243.83c-2.21,0-4.43,0-6.64,0-18.14.11-36.27.39-54.4.29-11.53-.06-23.06-.88-34.59-1-10.15-.06-20.31.55-30.47.63-2.09,0-5.75-.61-6-1.61a25.86,25.86,0,0,1-.09-10c.11-.74,3-1.4,4.62-1.5,7.74-.51,15.49-1,23.24-1.16,14.65-.39,26.39-7.45,37.56-16,9.25-7.06,16.3-16,23.12-27.25,12.07,21.57,26.22,40.53,45,55.77Z" transform="translate(1069.06 842.58)"/><path d="M-952.79-647.14c-5.53,7.41-10.8,13.75-15.25,20.62-5.06,7.83-9.51,16.07-14,24.27-1.77,3.24-3,3.25-5.12.41-16.28-21.33-37.62-32.84-64.71-33-3.57,0-7.14-.22-10.69,0-4.34.29-6.74-.79-6.51-5.84.3-6.85.22-7.08,6.54-7.09l76.77,0c9.56,0,19.11-.06,28.66,0A29.8,29.8,0,0,1-952.79-647.14Z" transform="translate(1069.06 842.58)"/><path d="M-656.09,243.81c-13.28,0-26.56,0-39.84-.05-1.11,0-2.2-.7-3.3-1.07a20.62,20.62,0,0,1,2-2.92c6.42-6.61,13-13,19.27-19.81,2.63-2.85,4.58-3.51,8.07-1.21,14.44,9.5,30.68,12.22,47.63,12,1.29,0,2.59,0,3.88,0,7.37,0,7.12,0,7.38,7.18.17,4.76-1.55,6.12-6.23,6C-630.18,243.61-643.14,243.81-656.09,243.81Z" transform="translate(1069.06 842.58)"/></svg>